PathFileType	4	(X/Y/Z)	C:\Users\Basilio\Documents\Thesis Gigler\squatting_fais\c3dfiles\075\SJ_pre1\markers_experimental.trc
DataRate	CameraRate	NumFrames	NumMarkers	Units	OrigDataRate	OrigDataStartFrame	OrigNumFrames
200.000000	200.000000	4	61	mm	200.000000	0	1642
Frame#	Time	FHD			LBHD			C7			T10			CLAV			LSHO			LUUPA			LMUPA			LDUPA			LLEP			LMEP			LRAD			LUL			LRFIN			RSHO			RUPA1			RMUPA			RDUPA			RLEP			RMEP			RRAD			RUL			RUFIN			LASI			RASI			USACR			LSACR			RSACR			LTHI1			LTHI2			LTHI3			LTHI4			LLFC			LMFC			LTIB1			LTIB2			LTIB3			LTIB4			LLMAL			LMMAL			LHEE			LMT1			LMT2			LMT5			RTHI			RTHI2			RTHI3			RTHI4			RLFC			RMFC			RTIB1			RTIB2			RTIB3			RTIB4			RLMAL			RMMAL			RHEE			RMT1			RMT2			RMT5			RBHD			
		X1	Y1	Z1	X2	Y2	Z2	X3	Y3	Z3	X4	Y4	Z4	X5	Y5	Z5	X6	Y6	Z6	X7	Y7	Z7	X8	Y8	Z8	X9	Y9	Z9	X10	Y10	Z10	X11	Y11	Z11	X12	Y12	Z12	X13	Y13	Z13	X14	Y14	Z14	X15	Y15	Z15	X16	Y16	Z16	X17	Y17	Z17	X18	Y18	Z18	X19	Y19	Z19	X20	Y20	Z20	X21	Y21	Z21	X22	Y22	Z22	X23	Y23	Z23	X24	Y24	Z24	X25	Y25	Z25	X26	Y26	Z26	X27	Y27	Z27	X28	Y28	Z28	X29	Y29	Z29	X30	Y30	Z30	X31	Y31	Z31	X32	Y32	Z32	X33	Y33	Z33	X34	Y34	Z34	X35	Y35	Z35	X36	Y36	Z36	X37	Y37	Z37	X38	Y38	Z38	X39	Y39	Z39	X40	Y40	Z40	X41	Y41	Z41	X42	Y42	Z42	X43	Y43	Z43	X44	Y44	Z44	X45	Y45	Z45	X46	Y46	Z46	X47	Y47	Z47	X48	Y48	Z48	X49	Y49	Z49	X50	Y50	Z50	X51	Y51	Z51	X52	Y52	Z52	X53	Y53	Z53	X54	Y54	Z54	X55	Y55	Z55	X56	Y56	Z56	X57	Y57	Z57	X58	Y58	Z58	X59	Y59	Z59	X60	Y60	Z60	X61	Y61	Z61	

1	0	-185.3090209960938	1697.243530273438	-885.4055175781252	-309.6875000000001	1569.724487304688	-974.9846191406252	-356.3686523437501	1456.263793945313	-904.8248291015627	-368.2124328613282	1131.022094726563	-899.1338500976565	-198.3782043457032	1412.492431640625	-904.1418457031252	-248.9335632324219	1447.515625	-1064.769653320313	-296.2229309082032	1295.337280273438	-1225.3984375	-260.0746459960938	1260.012939453125	-1217.689453125	-293.6072998046876	1235.84912109375	-1262.964599609375	-287.0173339843751	1151.473022460938	-1288.542358398438	-364.9271850585938	1140.415161132813	-1238.721069335938	-253.8741760253907	970.0068359375002	-1118.634765625	-212.6107330322266	934.9006347656252	-1172.061767578125	-207.8196563720704	955.499206542969	-1076.281127929688	-244.7192687988282	1447.851684570313	-742.3992919921876	-288.8242492675782	1299.851318359375	-583.0010375976564	-257.8359680175782	1260.669311523438	-587.4018554687501	-294.8179321289063	1240.960571289063	-543.4561767578126	-291.3628540039063	1172.1494140625	-517.6914062500001	-364.6738586425782	1142.53173828125	-548.5585327148439	-241.9683227539063	977.973815917969	-691.9691772460939	-197.2698669433594	956.1351318359377	-634.2217407226564	-186.3371734619141	968.8755493164065	-734.6041870117189	-192.8768310546876	947.7418212890627	-1027.57666015625	-182.1662292480469	960.5202636718752	-780.8682250976565	-350.6332702636719	1035.060913085938	-902.3935546875002	-357.6779479980469	1001.851623535156	-928.7182617187502	-354.3895568847657	1004.714660644531	-871.6614990234377	-271.7111816406251	720.2373046875001	-1104.91015625	-249.3042144775391	639.0852661132814	-1106.442138671875	-202.2165679931641	639.8967895507814	-1090.553100585938	-280.7731933593751	588.8378906250001	-1097.300659179688	-294.9300537109376	481.5156250000001	-1086.845336914063	-248.0711975097657	461.1829223632814	-976.2790527343752	-253.4933471679688	352.8521728515626	-1070.849731445313	-321.4806518554688	322.8379821777344	-1117.530029296875	-280.1457214355469	311.3675537109376	-1101.885864257813	-287.9712829589844	229.7987670898438	-1077.858520507813	-379.2620544433594	97.35151672363284	-1096.394775390625	-339.5895385742188	100.9637451171875	-1019.470336914063	-428.1740722656251	52.10781860351564	-1051.323608398438	-215.3384704589844	51.06884384155275	-1062.779907226563	-222.0686340332032	56.23583602905275	-1111.190795898438	-267.2107849121094	42.38774490356446	-1159.090698242188	-260.1176147460938	775.288757324219	-700.1759643554689	-227.1184997558594	718.8758544921876	-700.3269653320314	-196.6653137207032	721.8732299804689	-713.1725463867189	-263.2103576660157	640.5397338867189	-703.0514526367189	-292.8044128417969	487.637420654297	-724.7915649414064	-254.6657409667969	465.5784606933595	-844.4988403320315	-258.1514587402344	332.1244812011719	-772.1387939453127	-317.5271301269532	264.5280456542969	-708.1715087890626	-281.2827758789063	254.0066986083985	-738.0672607421876	-292.9425048828126	206.8097381591797	-769.744567871094	-373.3175659179688	93.2617874145508	-726.0981445312501	-337.8325195312501	108.756462097168	-806.4384765625002	-420.080291748047	51.04531097412111	-780.900573730469	-210.4194030761719	57.9750213623047	-760.8684692382814	-217.7382507324219	58.42464447021486	-719.9801025390626	-256.8671264648438	35.50300598144532	-670.0617065429689	nan	nan	nan	
2	0.005	-185.2017059326172	1697.192504882813	-885.4744262695315	-309.6835937500001	1569.682861328125	-975.0996704101565	-356.3350219726563	1456.2421875	-904.9749755859377	-368.2628784179688	1131.0166015625	-899.2572021484377	-198.3792114257813	1412.576416015625	-904.1167602539065	-248.6585083007813	1447.6357421875	-1064.816650390625	-295.9354248046876	1295.436645507813	-1225.459716796875	-259.7988586425782	1260.092407226563	-1217.662231445313	-293.2720642089844	1235.925415039063	-1262.9580078125	-286.6697692871094	1151.541381835938	-1288.570678710938	-364.5922241210938	1140.517211914063	-1238.782958984375	-253.7224731445313	970.038269042969	-1118.618896484375	-212.4199829101563	934.928649902344	-1172.033935546875	-207.6626129150391	955.508972167969	-1076.26318359375	-244.8269348144532	1447.995239257813	-742.4271850585939	-289.0316162109376	1299.94970703125	-583.0447387695314	-258.1030578613282	1260.668579101563	-587.5443725585939	-295.0762634277344	1241.0458984375	-543.5264892578126	-291.6603088378907	1172.218994140625	-517.7952880859376	-364.9249877929688	1142.618774414063	-548.7238769531251	-242.1254272460938	978.0252075195315	-691.9725341796876	-197.4499969482422	956.197692871094	-634.2407226562501	-186.4855194091797	968.9184570312502	-734.6388549804689	-193.4879760742188	948.2229003906252	-1027.701049804688	-182.2179412841797	960.555847167969	-780.8806762695315	-350.6286315917969	1035.025024414063	-902.5574340820315	-357.6460876464844	1001.799499511719	-928.8606567382815	-354.4328613281251	1004.647338867188	-871.778747558594	-271.5196228027344	720.1893920898439	-1104.934692382813	-249.1432647705079	639.1049194335939	-1106.45947265625	-202.0576934814454	639.8602905273439	-1090.566772460938	-280.5760498046876	588.7887573242189	-1097.391845703125	-294.7722778320313	481.4676818847657	-1086.92041015625	-247.8966979980469	461.139373779297	-976.3336181640627	-253.3264923095704	352.8215332031251	-1070.818115234375	-321.3723449707032	322.8216247558594	-1117.573974609375	-280.0069885253907	311.3357238769532	-1101.933471679688	-287.9271850585938	229.756820678711	-1077.875366210938	-379.2668151855469	97.35160827636722	-1096.416748046875	-339.5936279296876	100.9599075317383	-1019.490844726563	-428.1768188476564	52.12049484252931	-1051.316162109375	-215.3108978271485	51.06441497802736	-1062.736083984375	-221.9882202148438	56.26881790161134	-1111.154663085938	-267.1929626464844	42.38629913330079	-1159.053833007813	-260.1820678710938	775.2889404296877	-700.1884765625001	-227.1383209228516	718.8870849609376	-700.2719116210939	-196.6573333740235	721.9039306640626	-713.1413574218751	-263.1236572265626	640.5180664062501	-703.0545043945314	-292.6315002441407	487.6005859375001	-724.7875366210939	-254.3910522460938	465.5484008789064	-844.4365234375002	-258.0143737792969	332.1012268066407	-772.041931152344	-317.4471435546876	264.5467529296876	-708.1926879882814	-281.1780395507813	253.9589843750001	-738.0248413085939	-292.9178466796876	206.7989654541016	-769.6940917968752	-373.3152465820313	93.29379272460939	-726.0794067382814	-337.8434143066407	108.757926940918	-806.468444824219	-420.0308837890626	51.05131912231447	-780.9148559570315	-210.4226379394532	57.98915481567384	-760.8633422851564	-217.7237396240235	58.41592407226564	-719.9555053710939	-256.8732910156251	35.49815368652344	-670.0677490234376	nan	nan	nan	
3	0.01	-185.2217559814453	1697.107666015625	-885.5878906250002	-309.5766296386719	1569.646728515625	-975.1480712890627	-356.3718261718751	1456.247802734375	-905.092224121094	-368.2634277343751	1131.005859375	-899.4085693359377	-198.3252868652344	1412.700073242188	-904.0772094726565	-248.5565795898438	1447.729248046875	-1064.875244140625	-295.6499633789063	1295.512329101563	-1225.478149414063	-259.5658569335938	1260.1328125	-1217.664916992188	-293.0038757324219	1235.958984375	-1262.94482421875	-286.3498840332032	1151.610107421875	-1288.570678710938	-364.3257446289063	1140.595458984375	-1238.909301757813	-253.4718475341797	970.0518798828127	-1118.654907226563	-212.1934051513672	935.0212402343752	-1172.032348632813	-207.7492065429688	955.4863281250002	-1076.2958984375	-244.9447479248047	1448.148193359375	-742.4221191406251	-289.2589416503907	1300.056396484375	-583.0961914062501	-258.3412475585938	1260.804321289063	-587.6354370117189	-295.3543395996094	1241.130615234375	-543.6171875000001	-291.9409179687501	1172.281127929688	-517.9435424804689	-365.1952209472657	1142.734619140625	-548.9009399414064	-242.2029113769532	978.0671997070315	-692.0272216796876	-197.6422576904297	956.263366699219	-634.2539672851564	-186.610580444336	968.9663085937502	-734.6463623046876	-192.7185974121094	947.7872314453127	-1027.595703125	-182.2967071533203	960.6092529296877	-780.890075683594	-350.6346740722657	1035.007690429688	-902.7026977539065	-357.6395568847657	1001.752685546875	-928.9329223632815	-354.4735412597657	1004.643798828125	-871.8828125000002	-271.4295959472657	720.1970825195314	-1104.986572265625	-248.8833465576172	639.1326904296876	-1106.536376953125	-201.9426879882813	639.8829345703126	-1090.59423828125	-280.4375610351563	588.7669677734376	-1097.468017578125	-294.6163024902344	481.3750610351564	-1086.937744140625	-247.7613677978516	461.1214294433595	-976.3746337890627	-253.1629791259766	352.7602233886719	-1070.857055664063	-321.2830810546876	322.7778625488282	-1117.626342773438	-279.8847045898438	311.3262023925782	-1101.947998046875	-288.7590026855469	229.837387084961	-1078.725952148438	-379.2715148925782	97.3503341674805	-1096.426025390625	-339.5679931640626	100.9585723876953	-1019.501281738281	-428.1856079101564	52.13071441650392	-1051.334350585938	-215.2839050292969	51.10127639770509	-1062.732299804688	-222.0223236083985	56.26099014282228	-1111.108642578125	-267.2021484375001	42.36096191406251	-1159.045532226563	-260.2138061523438	775.2868652343752	-700.1962890625001	-227.1419830322266	718.8901367187501	-700.3081054687501	-196.6552276611329	721.9604492187501	-713.1410522460939	-263.1098022460938	640.5161743164064	-703.0316162109376	-292.5271301269532	487.6057128906251	-724.7277832031251	-254.2182769775391	465.5397949218751	-844.3489990234377	-257.8821411132813	332.0995788574219	-772.0273437500002	-317.4074401855469	264.5346374511719	-708.1342773437501	-281.1345825195313	253.9279174804688	-738.0309448242189	-292.8339233398438	206.7653961181641	-769.6522216796877	-373.4143676757813	93.17079925537111	-726.2069702148439	-337.4261779785157	108.6070785522461	-806.3477783203127	-420.0249633789064	51.08412551879884	-780.926452636719	-210.4137115478516	57.96794509887697	-760.8690185546876	-217.6468048095704	58.53899002075197	-719.8289794921876	-256.9107971191407	35.4742546081543	-670.0843505859376	nan	nan	nan	
4	0.015	-185.1326599121094	1697.037475585938	-885.6447753906252	-309.5440979003907	1569.606689453125	-975.2659912109377	-356.4671936035157	1456.263671875	-905.2595214843752	-368.3204650878907	1131.018188476563	-899.555358886719	-198.2470703125001	1412.781005859375	-904.0261230468752	-248.3837280273438	1447.830810546875	-1064.909545898438	-295.3822631835938	1295.567138671875	-1225.541137695313	-259.3576049804688	1260.17138671875	-1217.655029296875	-292.6708984375001	1235.99658203125	-1262.954345703125	-286.0219421386719	1151.674682617188	-1288.598510742188	-364.0460510253907	1140.672241210938	-1238.960815429688	-253.3753204345704	970.0811157226565	-1118.662841796875	-212.0239868164063	935.0247802734377	-1171.992553710938	-207.6267700195313	955.5155029296877	-1076.2685546875	-245.1142578125001	1448.26806640625	-742.4445800781251	-289.5087890625001	1300.149658203125	-583.1295776367189	-258.6072998046876	1260.892211914063	-587.7032470703126	-295.5834960937501	1241.19873046875	-543.6605834960939	-292.2340393066407	1172.322021484375	-518.0469360351564	-365.3905944824219	1142.829467773438	-549.0888671875001	-242.3457641601563	978.1262207031252	-692.1004028320314	-197.8021697998047	956.3178710937502	-634.2448730468751	-187.0758514404297	968.926696777344	-734.9583740234376	-192.6115875244141	947.7663574218752	-1027.634033203125	-182.4319915771485	960.5855102539065	-780.894958496094	-350.7032470703126	1035.009033203125	-902.8641357421877	-357.6566162109376	1001.727355957031	-929.0806884765627	-354.5481262207032	1004.659240722656	-872.002624511719	-271.2788391113282	720.1760864257814	-1105.107299804688	-248.744369506836	639.1058349609376	-1106.559692382813	-201.7876129150391	639.8815307617189	-1090.552368164063	-280.2800292968751	588.7316894531251	-1097.515747070313	-294.4373474121094	481.4465332031251	-1087.119262695313	-247.6422271728516	461.1380615234376	-976.4239501953127	-253.9788665771485	352.9073486328126	-1071.5048828125	-321.1278381347657	322.7260131835938	-1117.677856445313	-279.7961120605469	311.2701110839844	-1102.003173828125	-287.7225036621094	229.7415924072266	-1077.898681640625	-379.2200927734376	97.33284759521487	-1096.45703125	-339.5728759765626	100.956901550293	-1019.509521484375	-428.1768188476564	52.12049865722658	-1051.316162109375	-215.3073425292969	51.06182098388673	-1062.758056640625	-222.0142059326172	56.24876785278322	-1111.188598632813	-267.2016601562501	42.38827133178712	-1159.079467773438	-260.2346191406251	775.2939453125002	-700.2307128906251	-227.1754760742188	718.9348754882814	-700.2533569335939	-196.6768646240235	721.9851074218751	-713.0916137695314	-263.0549621582032	640.5151977539064	-703.0327758789064	-292.3448486328126	487.609100341797	-724.7329711914064	-254.0216827392579	465.5030517578126	-844.3525390625002	-257.7908935546876	332.0505065917969	-771.9939575195315	-317.3147888183594	264.5182800292969	-708.1693115234376	-281.0514221191407	253.9458312988282	-737.9876098632814	-292.7590026855469	206.7540283203126	-769.6536254882815	-373.2833251953126	93.28723144531251	-726.1083374023439	-337.7334289550782	108.7789535522461	-806.4562988281252	-420.0212707519532	51.10077285766603	-780.9293212890627	-210.4006500244141	57.96117019653322	-760.8612060546876	-217.6597595214844	58.48707199096681	-719.8818969726564	-256.8886108398438	35.47504806518555	-670.0770874023439	nan	nan	nan	
